<?xml version="1.0" encoding="UTF-8"?>
<svg width="1200pt" height="1200pt" version="1.1" viewBox="0 0 1200 1200" xmlns="http://www.w3.org/2000/svg">
 <path d="m337.5 937.5v225c0 20.699 16.801 37.5 37.5 37.5h450c20.699 0 37.5-16.801 37.5-37.5v-225h9.375c139.69 0 253.12-113.44 253.12-253.12v-431.25c0-139.69-113.44-253.12-253.12-253.12h-543.75c-139.69 0-253.12 113.44-253.12 253.12v431.25c0 139.69 113.44 253.12 253.12 253.12zm450-375h-375v562.5h375zm-112.5 412.5v75c0 20.699 16.801 37.5 37.5 37.5s37.5-16.801 37.5-37.5v-75c0-20.699-16.801-37.5-37.5-37.5s-37.5 16.801-37.5 37.5zm-225 0v75c0 20.699 16.801 37.5 37.5 37.5s37.5-16.801 37.5-37.5v-75c0-20.699-16.801-37.5-37.5-37.5s-37.5 16.801-37.5 37.5zm112.5 0v75c0 20.699 16.801 37.5 37.5 37.5s37.5-16.801 37.5-37.5v-75c0-20.699-16.801-37.5-37.5-37.5s-37.5 16.801-37.5 37.5zm-75-75h187.5c20.699 0 37.5-16.801 37.5-37.5s-16.801-37.5-37.5-37.5h-187.5c-20.699 0-37.5 16.801-37.5 37.5s16.801 37.5 37.5 37.5zm375-37.5h9.375c98.324 0 178.12-79.801 178.12-178.12v-431.25c0-98.324-79.801-178.12-178.12-178.12h-543.75c-98.324 0-178.12 79.801-178.12 178.12v431.25c0 98.324 79.801 178.12 178.12 178.12h9.375v-75h-75c-20.699 0-37.5-16.801-37.5-37.5v-225c0-20.699 16.801-37.5 37.5-37.5h675c20.699 0 37.5 16.801 37.5 37.5v225c0 20.699-16.801 37.5-37.5 37.5h-75zm-375-75h112.5c20.699 0 37.5-16.801 37.5-37.5s-16.801-37.5-37.5-37.5h-112.5c-20.699 0-37.5 16.801-37.5 37.5s16.801 37.5 37.5 37.5zm-150-225h-37.5v150h37.5zm525 0v150h37.5v-150zm-375 112.5h225c20.699 0 37.5-16.801 37.5-37.5s-16.801-37.5-37.5-37.5h-225c-20.699 0-37.5 16.801-37.5 37.5s16.801 37.5 37.5 37.5zm112.5-300c20.699 0 37.5 16.801 37.5 37.5s-16.801 37.5-37.5 37.5-37.5-16.801-37.5-37.5 16.801-37.5 37.5-37.5zm-337.5 0c20.699 0 37.5 16.801 37.5 37.5s-16.801 37.5-37.5 37.5-37.5-16.801-37.5-37.5 16.801-37.5 37.5-37.5zm225 0c20.699 0 37.5 16.801 37.5 37.5s-16.801 37.5-37.5 37.5-37.5-16.801-37.5-37.5 16.801-37.5 37.5-37.5zm-112.5 0c20.699 0 37.5 16.801 37.5 37.5s-16.801 37.5-37.5 37.5-37.5-16.801-37.5-37.5 16.801-37.5 37.5-37.5z" fill-rule="evenodd"/>
</svg>
